<svg width="30" height="30" viewBox="0 0 30 30" fill="none" xmlns="http://www.w3.org/2000/svg">
<path d="M27.2728 0H2.7273C1.22382 0 0 1.22312 0 2.7273V27.2728C0 28.7769 1.22382 30.0001 2.7273 30.0001H27.2728C28.7762 30.0001 30.0001 28.7769 30.0001 27.2728V2.7273C30 1.22312 28.7762 0 27.2728 0ZM28.6364 27.2728C28.6364 28.0245 28.0251 28.6364 27.2728 28.6364H2.7273C1.97489 28.6364 1.36368 28.0245 1.36368 27.2728V2.7273C1.36368 1.97559 1.97495 1.36368 2.7273 1.36368H27.2728C28.0252 1.36368 28.6364 1.97559 28.6364 2.7273V27.2728Z" fill="#606566"/>
<mask id="path-2-inside-1_7055_247" fill="white">
<path d="M23.3673 8.39533L12.2837 20.1301L6.64274 13.8619C6.3884 13.5816 5.95828 13.5596 5.67862 13.8113C5.39897 14.0629 5.37634 14.4944 5.628 14.7741L11.7644 21.5923C11.8922 21.7341 12.0733 21.8154 12.2638 21.818H12.2718C12.4596 21.818 12.638 21.7408 12.7672 21.6042L24.358 9.33152C24.6164 9.05787 24.6044 8.62641 24.3314 8.36804C24.0585 8.10904 23.6243 8.12163 23.3673 8.39533Z"/>
</mask>
<path d="M23.3673 8.39533L12.2837 20.1301L6.64274 13.8619C6.3884 13.5816 5.95828 13.5596 5.67862 13.8113C5.39897 14.0629 5.37634 14.4944 5.628 14.7741L11.7644 21.5923C11.8922 21.7341 12.0733 21.8154 12.2638 21.818H12.2718C12.4596 21.818 12.638 21.7408 12.7672 21.6042L24.358 9.33152C24.6164 9.05787 24.6044 8.62641 24.3314 8.36804C24.0585 8.10904 23.6243 8.12163 23.3673 8.39533Z" fill="#606566"/>
<path d="M23.3673 8.39533L25.1848 10.112L25.1897 10.1067L23.3673 8.39533ZM12.2837 20.1301L10.4254 21.8024L12.2393 23.818L14.1012 21.8467L12.2837 20.1301ZM6.64274 13.8619L8.50104 12.1895L8.49413 12.1819L6.64274 13.8619ZM5.628 14.7741L3.76966 16.4464L3.76976 16.4465L5.628 14.7741ZM11.7644 21.5923L9.90613 23.2647L9.90734 23.2661L11.7644 21.5923ZM12.2638 21.818L12.2294 24.3178L12.2466 24.318H12.2638V21.818ZM12.7672 21.6042L14.5831 23.3225L14.5847 23.3208L12.7672 21.6042ZM24.358 9.33152L26.1756 11.0481L26.1758 11.0478L24.358 9.33152ZM24.3314 8.36804L22.6105 10.1815L22.613 10.1838L24.3314 8.36804ZM23.3673 8.39533L21.5498 6.67871L10.4662 18.4134L12.2837 20.1301L14.1012 21.8467L25.1848 10.112L23.3673 8.39533ZM12.2837 20.1301L14.142 18.4577L8.50103 12.1895L6.64274 13.8619L4.78445 15.5342L10.4254 21.8024L12.2837 20.1301ZM6.64274 13.8619L8.49413 12.1819C7.3193 10.8872 5.31441 10.7758 4.00633 11.9529L5.67862 13.8113L7.35092 15.6696C6.60214 16.3434 5.45749 16.276 4.79134 15.5419L6.64274 13.8619ZM5.67862 13.8113L4.00633 11.9529C2.69979 13.1287 2.59492 15.141 3.76966 16.4464L5.628 14.7741L7.48634 13.1018C8.15776 13.8479 8.09816 14.9972 7.35092 15.6696L5.67862 13.8113ZM5.628 14.7741L3.76976 16.4465L9.90613 23.2647L11.7644 21.5923L13.6226 19.9199L7.48624 13.1017L5.628 14.7741ZM11.7644 21.5923L9.90734 23.2661C10.5055 23.9297 11.3493 24.3057 12.2294 24.3178L12.2638 21.818L12.2982 19.3182C12.7973 19.3251 13.2789 19.5385 13.6214 19.9185L11.7644 21.5923ZM12.2638 21.818V24.318H12.2718V21.818V19.318H12.2638V21.818ZM12.2718 21.818V24.318C13.1507 24.318 13.9846 23.9551 14.5831 23.3225L12.7672 21.6042L10.9512 19.886C11.2914 19.5265 11.7685 19.318 12.2718 19.318V21.818ZM12.7672 21.6042L14.5847 23.3208L26.1756 11.0481L24.358 9.33152L22.5405 7.61496L10.9496 19.8877L12.7672 21.6042ZM24.358 9.33152L26.1758 11.0478C27.38 9.77246 27.3262 7.76022 26.0498 6.55227L24.3314 8.36804L22.613 10.1838C21.8826 9.4926 21.8528 8.34329 22.5403 7.61522L24.358 9.33152ZM24.3314 8.36804L26.0523 6.55459C24.7751 5.3426 22.7515 5.39904 21.5448 6.68398L23.3673 8.39533L25.1897 10.1067C24.4971 10.8442 23.3418 10.8755 22.6105 10.1815L24.3314 8.36804Z" fill="#FDB056" mask="url(#path-2-inside-1_7055_247)"/>
</svg>
